<svg width="2127" height="725" viewBox="0 0 2127 725" fill="none" xmlns="http://www.w3.org/2000/svg">
<path d="M582.656 422.241H641.905V246.533H582.656V422.241ZM519.994 483.285V185.737H674.214V215.269H704.736V453.423H674.214V483.202H519.994V483.285Z" fill="#1A1A1A"/>
<path d="M255.372 185.737H188.791V482.047H255.372V185.737Z" fill="#1A1A1A"/>
<path d="M811.128 185.737H744.545V482.047H811.128V185.737Z" fill="#1A1A1A"/>
<path d="M358.015 483.202H295.269V185.737H479.926V483.202H417.181V246.533H357.929V483.202H358.015Z" fill="#1A1A1A"/>
<path fill-rule="evenodd" clip-rule="evenodd" d="M851.026 483.202H913.684V364.909H972.937V483.202H1035.6V185.737H850.939V483.202H851.026ZM973.023 300.483V246.533H913.771V300.483H973.023Z" fill="#1A1A1A"/>
<path d="M1217.44 483.202H1154.61V185.737H1309.08V246.533H1217.44V304.03H1309.08V364.826H1217.44V483.285V483.202Z" fill="#1A1A1A"/>
<path d="M1341.99 185.737V483.202H1526.99V185.737H1341.99ZM1464.16 422.241H1404.74V246.533H1464.16V422.241Z" fill="#1A1A1A"/>
<path d="M1751.88 246.533V185.737H1597.49H1566.88V215.269V364.744H1689.13V422.241H1566.88V483.202H1721.36H1751.88V453.423V303.947H1629.71V246.533H1751.88Z" fill="#1A1A1A"/>
<path d="M1976.86 246.533V185.737H1822.38H1791.87V215.269V364.744H1914.03V422.241H1791.87V483.202H1946.34H1976.86V453.423V303.947H1854.7V246.533H1976.86Z" fill="#1A1A1A"/>
<path fill-rule="evenodd" clip-rule="evenodd" d="M2126.57 48.0813V619.883H2063.03H1978.32V556.349H2063.03V111.615H104.08V556.349H1385.34V619.883H104.08H40.5463L40.5459 556.349L40.5463 111.615L40.5459 48.0813H2063.03H2126.57Z" fill="#1A1A1A"/>
<path d="M1545.89 598.383H1545.73V619.009H1545.89V660.263H1481.79V682.956H1545.89V724.209H1438.63V682.956H1438.79V660.263H1438.63V619.009H1502.73V598.383H1438.63V555.066H1545.89V598.383Z" fill="#1A1A1A"/>
<path d="M1799.6 598.383H1799.44V619.009H1799.6V660.263H1735.53V682.956H1799.6V724.209H1694.4V682.956H1694.53V660.263H1694.4V619.009H1756.44V598.383H1694.4V555.066H1799.6V598.383Z" fill="#1A1A1A"/>
<path d="M1925.42 596.32H1863.39V619.009H1925.42V660.263H1925.3V680.89H1925.42V724.206H1925.3V724.21H1884.3V724.206H1820.23V680.89H1884.3V660.263H1820.23V619.009H1820.39V596.32H1820.23V555.066H1925.42V596.32Z" fill="#1A1A1A"/>
<path fill-rule="evenodd" clip-rule="evenodd" d="M1671.71 598.383H1671.59V682.956H1671.71V724.209H1566.51V682.956H1566.64V598.383H1566.51V555.066H1671.71V598.383ZM1607.64 682.956H1630.59V598.383H1607.64V682.956Z" fill="#1A1A1A"/>
<mask id="mask0_3468_8282" style="mask-type:luminance" maskUnits="userSpaceOnUse" x="0" y="0" width="658" height="161">
<path d="M657.019 0H0V160.134H657.019V0Z" fill="white"/>
</mask>
<g mask="url(#mask0_3468_8282)">
<path d="M641.481 0H632.827H609.325H598.978H576.171H567.124H549.204H539.466H211.173H201.737H195.072H0V132.275L15.4949 160.134H206.844L211.173 160.091H656.675L657.021 27.8588L641.481 0Z" fill="#1A1A1A"/>
<path d="M634.469 9.74854H202.299V36.6108H634.469V9.74854Z" fill="white"/>
<path d="M127.421 124.997H140.752V98.9574H153.391V124.997H166.722V59.5739H127.421V124.997ZM140.752 72.9615H153.391V85.613H140.752V72.9615ZM177.196 59.6171H216.496V125.04H203.165V73.0047H190.526V125.04H177.196V59.6171ZM226.97 59.6171H266.27V125.04H252.939V73.0047H240.301V125.04H226.97V59.6171ZM276.744 59.6171H290.075V125.04H276.744V59.6171ZM326.519 59.6171H339.849V111.955H333.357V118.454H326.865V124.997H300.549V59.5739H313.88V111.565H320.026V105.067H326.519V59.5739V59.6171ZM350.323 59.6171H383.131V72.9615H363.654V85.613H383.131V98.9574H363.654V111.609H383.131V125.04H350.323V59.6171ZM449.873 59.6171H482.681V72.9615H456.712V85.613H482.681V124.823H476.188V125.04H443.38V111.609H469.349V98.9574H443.38V66.1159H443.725V59.8336H449.873V59.6171ZM493.153 125.04H506.486V99.0006H519.123V125.04H532.455V59.6171H493.153V125.04ZM506.486 73.0047H519.123V85.6562H506.486V73.0047ZM542.927 59.6603V125.083H556.26V99.0439H568.897V125.083H582.229V98.6542H572.793V89.0356H582.229V59.6603H542.927ZM568.897 85.6562H556.26V73.0047H568.897V85.6562ZM393.606 59.6603V125.083H406.938V99.0439H419.575V125.083H432.907V98.6542H423.472V89.0356H432.907V59.6603H393.606ZM419.575 85.6562H406.938V73.0047H419.575V85.6562ZM632.003 59.6603V99.0006H619.016V125.04H605.688V99.0006H592.701V59.6603H606.034V85.6562H618.671V59.6603H632.003ZM9.73779 9.74854H112.532V29.0721H38.5205V52.1218H112.532V72.4851H112.489V100.257H112.532V124.953H9.73779V100.257V95.0147H38.4336V104.59H83.7067V72.4851H9.73779V29.0721V9.74854ZM135.039 19.7569H125.041V9.74854H135.039H145.037H155.858V19.7569H145.037V48.9588H135.039V19.7569ZM178.364 33.1014H169.189V48.9588H159.191V9.74854H169.189V23.093H178.364V9.74854H188.362V48.9588H178.364V33.1014Z" fill="white"/>
<path d="M287.299 13.3448H205.662V32.9691H287.299V13.3448Z" fill="#08B74F"/>
<path d="M612.353 0H599.885V9.74841H612.353V0Z" fill="white"/>
<path d="M570.843 0H559.33V9.74841H570.843V0Z" fill="white"/>
</g>
</svg>
