<svg width="205" height="60" viewBox="0 0 205 60" fill="none" xmlns="http://www.w3.org/2000/svg">
<rect width="204.143" height="59.3069" rx="6" fill="#1A1A1A"/>
<rect x="136.78" y="5.34497" width="62.7368" height="48.6167" rx="2" fill="#FAFAFA"/>
<path d="M146.518 30.5336H142.465V10.3438H152.432V14.4684H146.518V18.3683H152.432V22.493H146.518V30.5336Z" fill="#1A1A1A"/>
<path d="M158.347 26.393H162.179V14.4684H158.347V26.393ZM156.265 30.5336V28.5115H154.294V12.35H156.265V10.3438H164.261V12.35H166.232V28.5115H164.261V30.5336H156.265ZM154.404 10.408H156.265V12.35H154.404V10.408ZM164.261 10.3438H166.232V12.3499H164.261V10.3438ZM164.261 28.5114H166.232V30.4694H164.261V28.5114ZM154.294 28.5114H156.265V30.5336H154.294V28.5114Z" fill="#1A1A1A"/>
<path d="M178.06 30.5336H168.093V26.3929H175.979V22.493H170.065V20.4868H168.093V12.3499H170.065V10.3438H180.032V14.4684H172.146V18.3683H178.06V20.3745H180.032V28.5114H178.06V30.5336ZM168.204 10.408H170.065V12.3499H168.204V10.408ZM168.093 20.4868H170.065V22.493H168.093V20.4868ZM178.06 18.3683H180.032V20.3745H178.06V18.3683ZM178.06 28.5114H180.032V30.4694H178.06V28.5114Z" fill="#1A1A1A"/>
<path d="M191.86 30.5336H181.893V26.3929H189.778V22.493H183.864V20.4868H181.893V12.3499H183.864V10.3438H193.831V14.4684H185.946V18.3683H191.86V20.3745H193.831V28.5114H191.86V30.5336ZM182.003 10.408H183.864V12.3499H182.003V10.408ZM181.893 20.4868H183.864V22.493H181.893V20.4868ZM191.86 18.3683H193.831V20.3745H191.86V18.3683ZM191.86 28.5114H193.831V30.4694H191.86V28.5114Z" fill="#1A1A1A"/>
<path d="M143.889 48.9776V47.5138H142.464V34.3628H145.394V45.9803H148.163V34.3628H151.092V47.5138H149.668V48.9776H143.889ZM142.464 47.5138H143.889V48.9776H142.464V47.5138ZM149.668 47.5138H151.092V48.9312H149.668V47.5138Z" fill="#1A1A1A"/>
<path d="M155.366 48.9776H152.437V34.3628H161.065V48.9776H158.136V37.3485H155.366V48.9776Z" fill="#1A1A1A"/>
<path d="M165.339 48.9776H162.41V34.3628H165.339V48.9776Z" fill="#1A1A1A"/>
<path d="M172.462 48.9776H169.533V37.3485H166.684V34.3628H175.312V37.3485H172.462V48.9776Z" fill="#1A1A1A"/>
<path d="M183.86 48.9776H176.656V34.3628H183.86V37.3485H179.586V40.1716H183.86V43.1573H179.586V45.9803H183.86V48.9776Z" fill="#1A1A1A"/>
<path d="M188.134 45.9803H190.903V37.3485H188.134V45.9803ZM185.204 48.9776V34.3628H192.408V35.815H193.832V47.5138H192.408V48.9776H185.204Z" fill="#1A1A1A"/>
<path d="M118.623 24.1963H121.206L123.694 28.8944H123.801L126.288 24.1963H128.872L124.893 31.2488V35.1054H122.602V31.2488L118.623 24.1963Z" fill="#FAFAFA"/>
<path d="M109.895 35.1054V24.1963H114.263C115.066 24.1963 115.735 24.3153 116.271 24.5532C116.808 24.7911 117.211 25.1214 117.48 25.5439C117.75 25.963 117.885 26.4459 117.885 26.9928C117.885 27.4189 117.8 27.7936 117.63 28.1167C117.459 28.4363 117.225 28.6991 116.926 28.9051C116.632 29.1075 116.294 29.2513 115.914 29.3366V29.4431C116.33 29.4608 116.719 29.578 117.081 29.7947C117.447 30.0113 117.743 30.3149 117.971 30.7055C118.198 31.0926 118.311 31.5542 118.311 32.0905C118.311 32.6693 118.168 33.186 117.88 33.6405C117.596 34.0915 117.175 34.4484 116.618 34.7112C116.06 34.974 115.373 35.1054 114.556 35.1054H109.895ZM112.202 33.2197H114.082C114.725 33.2197 115.194 33.0972 115.488 32.8522C115.783 32.6036 115.93 32.2733 115.93 31.8614C115.93 31.5596 115.858 31.2932 115.712 31.0624C115.566 30.8316 115.359 30.6505 115.089 30.5191C114.822 30.3877 114.505 30.322 114.135 30.322H112.202V33.2197ZM112.202 28.7613H113.912C114.228 28.7613 114.508 28.7062 114.753 28.5961C115.002 28.4825 115.197 28.3227 115.339 28.1167C115.485 27.9108 115.558 27.664 115.558 27.3763C115.558 26.9822 115.417 26.6643 115.137 26.4229C114.86 26.1814 114.466 26.0606 113.954 26.0606H112.202V28.7613Z" fill="#FAFAFA"/>
<path d="M98.4777 35.1054H94.6105V24.1963H98.5096C99.6069 24.1963 100.552 24.4147 101.343 24.8515C102.135 25.2847 102.744 25.9079 103.17 26.7211C103.6 27.5344 103.815 28.5074 103.815 29.6402C103.815 30.7765 103.6 31.7531 103.17 32.5699C102.744 33.3866 102.132 34.0134 101.333 34.4502C100.537 34.887 99.5856 35.1054 98.4777 35.1054ZM96.9169 33.1292H98.3818C99.0636 33.1292 99.6371 33.0084 100.102 32.767C100.571 32.5219 100.923 32.1437 101.157 31.6324C101.395 31.1175 101.514 30.4534 101.514 29.6402C101.514 28.8341 101.395 28.1753 101.157 27.664C100.923 27.1526 100.573 26.7762 100.108 26.5347C99.6424 26.2932 99.0689 26.1725 98.3871 26.1725H96.9169V33.1292Z" fill="#FAFAFA"/>
<path d="M84.9759 35.1054V24.1963H92.3267V26.0979H87.2824V28.6974H91.9485V30.599H87.2824V33.2037H92.3481V35.1054H84.9759Z" fill="#FAFAFA"/>
<path d="M74.0909 26.0979V24.1963H83.0504V26.0979H79.7106V35.1054H77.4307V26.0979H74.0909Z" fill="#FAFAFA"/>
<path d="M64.2126 35.1054V24.1963H68.5166C69.3405 24.1963 70.0436 24.3437 70.626 24.6384C71.2119 24.9296 71.6576 25.3433 71.963 25.8795C72.2719 26.4122 72.4264 27.039 72.4264 27.7599C72.4264 28.4843 72.2701 29.1075 71.9576 29.6295C71.6451 30.148 71.1924 30.5457 70.5993 30.8227C70.0098 31.0997 69.2961 31.2382 68.458 31.2382H65.5763V29.3845H68.0851C68.5255 29.3845 68.8912 29.3241 69.1824 29.2034C69.4736 29.0827 69.6902 28.9015 69.8323 28.6601C69.9779 28.4186 70.0507 28.1185 70.0507 27.7599C70.0507 27.3976 69.9779 27.0922 69.8323 26.8437C69.6902 26.5951 69.4718 26.4069 69.1771 26.279C68.8859 26.1476 68.5184 26.0819 68.0745 26.0819H66.5191V35.1054H64.2126ZM70.104 30.1409L72.8152 35.1054H70.2691L67.6164 30.1409H70.104Z" fill="#FAFAFA"/>
<path d="M62.0541 29.6508C62.0541 30.8404 61.8286 31.8525 61.3776 32.687C60.9301 33.5216 60.3194 34.159 59.5452 34.5993C58.7746 35.0361 57.9081 35.2545 56.9458 35.2545C55.9763 35.2545 55.1063 35.0343 54.3357 34.594C53.5651 34.1537 52.9561 33.5162 52.5086 32.6817C52.0612 31.8472 51.8375 30.8369 51.8375 29.6508C51.8375 28.4612 52.0612 27.4491 52.5086 26.6146C52.9561 25.7801 53.5651 25.1444 54.3357 24.7076C55.1063 24.2673 55.9763 24.0471 56.9458 24.0471C57.9081 24.0471 58.7746 24.2673 59.5452 24.7076C60.3194 25.1444 60.9301 25.7801 61.3776 26.6146C61.8286 27.4491 62.0541 28.4612 62.0541 29.6508ZM59.7157 29.6508C59.7157 28.8802 59.6002 28.2304 59.3694 27.7012C59.1422 27.1721 58.8208 26.7708 58.4053 26.4974C57.9898 26.224 57.5033 26.0872 56.9458 26.0872C56.3882 26.0872 55.9017 26.224 55.4863 26.4974C55.0708 26.7708 54.7476 27.1721 54.5168 27.7012C54.2895 28.2304 54.1759 28.8802 54.1759 29.6508C54.1759 30.4214 54.2895 31.0713 54.5168 31.6004C54.7476 32.1295 55.0708 32.5308 55.4863 32.8042C55.9017 33.0777 56.3882 33.2144 56.9458 33.2144C57.5033 33.2144 57.9898 33.0777 58.4053 32.8042C58.8208 32.5308 59.1422 32.1295 59.3694 31.6004C59.6002 31.0713 59.7157 30.4214 59.7157 29.6508Z" fill="#FAFAFA"/>
<path d="M41.8673 35.1054V24.1963H46.1713C46.9987 24.1963 47.7036 24.3543 48.286 24.6704C48.8684 24.9829 49.3123 25.4179 49.6177 25.9754C49.9266 26.5294 50.0811 27.1686 50.0811 27.893C50.0811 28.6175 49.9248 29.2567 49.6123 29.8106C49.2998 30.3646 48.8471 30.7961 48.254 31.105C47.6645 31.414 46.9508 31.5684 46.1127 31.5684H43.3694V29.7201H45.7398C46.1837 29.7201 46.5495 29.6437 46.8371 29.491C47.1283 29.3348 47.3449 29.1199 47.487 28.8465C47.6326 28.5695 47.7054 28.2517 47.7054 27.893C47.7054 27.5308 47.6326 27.2148 47.487 26.9449C47.3449 26.6714 47.1283 26.4601 46.8371 26.311C46.5459 26.1583 46.1766 26.0819 45.7292 26.0819H44.1738V35.1054H41.8673Z" fill="#FAFAFA"/>
<path d="M31.7054 35.1054V24.1963H36.0094C36.8368 24.1963 37.5417 24.3543 38.1241 24.6704C38.7064 24.9829 39.1503 25.4179 39.4557 25.9754C39.7647 26.5294 39.9192 27.1686 39.9192 27.893C39.9192 28.6175 39.7629 29.2567 39.4504 29.8106C39.1379 30.3646 38.6851 30.7961 38.0921 31.105C37.5026 31.414 36.7888 31.5684 35.9508 31.5684H33.2075V29.7201H35.5779C36.0218 29.7201 36.3876 29.6437 36.6752 29.491C36.9664 29.3348 37.183 29.1199 37.3251 28.8465C37.4707 28.5695 37.5435 28.2517 37.5435 27.893C37.5435 27.5308 37.4707 27.2148 37.3251 26.9449C37.183 26.6714 36.9664 26.4601 36.6752 26.311C36.384 26.1583 36.0147 26.0819 35.5672 26.0819H34.0118V35.1054H31.7054Z" fill="#FAFAFA"/>
<path d="M27.0513 24.1963H29.3578V31.2808C29.3578 32.0763 29.1678 32.7723 28.7878 33.3689C28.4114 33.9655 27.884 34.4307 27.2058 34.7645C26.5275 35.0947 25.7374 35.2599 24.8354 35.2599C23.9299 35.2599 23.1379 35.0947 22.4597 34.7645C21.7814 34.4307 21.2541 33.9655 20.8776 33.3689C20.5012 32.7723 20.313 32.0763 20.313 31.2808V24.1963H22.6195V31.0837C22.6195 31.4992 22.71 31.8685 22.8911 32.1917C23.0758 32.5148 23.335 32.7687 23.6688 32.9534C24.0026 33.1381 24.3915 33.2304 24.8354 33.2304C25.2828 33.2304 25.6717 33.1381 26.0019 32.9534C26.3357 32.7687 26.5932 32.5148 26.7743 32.1917C26.959 31.8685 27.0513 31.4992 27.0513 31.0837V24.1963Z" fill="#FAFAFA"/>
<path d="M15.9519 27.3337C15.9093 26.904 15.7264 26.5702 15.4032 26.3323C15.0801 26.0943 14.6415 25.9754 14.0875 25.9754C13.7111 25.9754 13.3933 26.0287 13.134 26.1352C12.8748 26.2382 12.676 26.382 12.5375 26.5667C12.4025 26.7513 12.335 26.9608 12.335 27.1952C12.3279 27.3905 12.3688 27.561 12.4576 27.7066C12.5499 27.8522 12.676 27.9782 12.8358 28.0848C12.9956 28.1877 13.1802 28.2783 13.3897 28.3564C13.5992 28.431 13.823 28.4949 14.0609 28.5482L15.041 28.7826C15.5169 28.8891 15.9536 29.0311 16.3514 29.2087C16.7491 29.3863 17.0936 29.6046 17.3848 29.8639C17.676 30.1231 17.9014 30.4285 18.0612 30.7801C18.2246 31.1316 18.3081 31.5347 18.3116 31.9892C18.3081 32.6568 18.1376 33.2357 17.8002 33.7257C17.4664 34.2122 16.9835 34.5904 16.3514 34.8603C15.7228 35.1267 14.9647 35.2598 14.0769 35.2598C13.1962 35.2598 12.4291 35.1249 11.7757 34.855C11.1259 34.5851 10.6181 34.1856 10.2523 33.6565C9.89008 33.1238 9.7001 32.4651 9.68234 31.6803H11.9142C11.9391 32.0461 12.0438 32.3515 12.2285 32.5965C12.4167 32.838 12.6671 33.0208 12.9796 33.1451C13.2956 33.2659 13.6525 33.3262 14.0502 33.3262C14.4409 33.3262 14.78 33.2694 15.0676 33.1558C15.3588 33.0421 15.5843 32.8841 15.7441 32.6817C15.9039 32.4793 15.9838 32.2467 15.9838 31.9839C15.9838 31.7389 15.911 31.5329 15.7654 31.366C15.6234 31.1991 15.4139 31.0571 15.1369 30.9399C14.8635 30.8227 14.5279 30.7162 14.1301 30.6203L12.9423 30.322C12.0225 30.0983 11.2963 29.7485 10.7637 29.2726C10.231 28.7968 9.96643 28.1558 9.96998 27.3497C9.96643 26.6892 10.1422 26.1121 10.4973 25.6185C10.856 25.1249 11.3478 24.7396 11.9728 24.4626C12.5978 24.1856 13.3081 24.0471 14.1035 24.0471C14.9132 24.0471 15.6198 24.1856 16.2235 24.4626C16.8308 24.7396 17.3031 25.1249 17.6404 25.6185C17.9778 26.1121 18.1518 26.6838 18.1625 27.3337H15.9519Z" fill="#FAFAFA"/>
</svg>
